<svg xmlns="http://www.w3.org/2000/svg" viewBox="0 0 1100 550"><rect width="1100" height="100%" fill="#fff"/><g font-family="sans-serif" fill="#172b3a"><text x="30" y="38" font-size="24">5 · ACL violations versus structural raw exposure (different concepts)</text><text x="30" y="70" font-size="16">MOCK VALIDATION — NOT LLM RESULTS | n=30 tasks, 150 runs | descriptive means; paired CIs in analysis.json</text><text x="30.0" y="116" font-size="16">Unauthorized context hits</text><text x="30.0" y="158" font-size="16">C0</text><rect x="68.0" y="138" width="0.0" height="26" fill="#536878"/><text x="74.0" y="158" font-size="13">0.000</text><text x="30.0" y="223" font-size="16">C1</text><rect x="68.0" y="203" width="0.0" height="26" fill="#6879b0"/><text x="74.0" y="223" font-size="13">0.000</text><text x="30.0" y="288" font-size="16">C2</text><rect x="68.0" y="268" width="0.0" height="26" fill="#437db0"/><text x="74.0" y="288" font-size="13">0.000</text><text x="30.0" y="353" font-size="16">C3</text><rect x="68.0" y="333" width="0.0" height="26" fill="#16887b"/><text x="74.0" y="353" font-size="13">0.000</text><text x="30.0" y="418" font-size="16">C4</text><rect x="68.0" y="398" width="0.0" height="26" fill="#a36b38"/><text x="74.0" y="418" font-size="13">0.000</text><text x="30.0" y="490" font-size="12">Scale: 0 to 1; means over tasks</text><text x="376.6666666666667" y="116" font-size="16">Unauthorized output hits</text><text x="376.6666666666667" y="158" font-size="16">C0</text><rect x="414.6666666666667" y="138" width="0.0" height="26" fill="#536878"/><text x="420.6666666666667" y="158" font-size="13">0.000</text><text x="376.6666666666667" y="223" font-size="16">C1</text><rect x="414.6666666666667" y="203" width="0.0" height="26" fill="#6879b0"/><text x="420.6666666666667" y="223" font-size="13">0.000</text><text x="376.6666666666667" y="288" font-size="16">C2</text><rect x="414.6666666666667" y="268" width="0.0" height="26" fill="#437db0"/><text x="420.6666666666667" y="288" font-size="13">0.000</text><text x="376.6666666666667" y="353" font-size="16">C3</text><rect x="414.6666666666667" y="333" width="0.0" height="26" fill="#16887b"/><text x="420.6666666666667" y="353" font-size="13">0.000</text><text x="376.6666666666667" y="418" font-size="16">C4</text><rect x="414.6666666666667" y="398" width="0.0" height="26" fill="#a36b38"/><text x="420.6666666666667" y="418" font-size="13">0.000</text><text x="376.6666666666667" y="490" font-size="12">Scale: 0 to 1; means over tasks</text><text x="723.3333333333334" y="116" font-size="16">Authorized extra exposure</text><text x="723.3333333333334" y="158" font-size="16">C0</text><text x="763.3333333333334" y="158" font-size="16">N/A</text><text x="723.3333333333334" y="223" font-size="16">C1</text><rect x="761.3333333333334" y="203" width="211.66666666666669" height="26" fill="#6879b0"/><text x="979.0" y="223" font-size="13">17.800</text><text x="723.3333333333334" y="288" font-size="16">C2</text><rect x="761.3333333333334" y="268" width="211.66666666666669" height="26" fill="#437db0"/><text x="979.0" y="288" font-size="13">17.800</text><text x="723.3333333333334" y="353" font-size="16">C3</text><rect x="761.3333333333334" y="333" width="0.0" height="26" fill="#16887b"/><text x="767.3333333333334" y="353" font-size="13">0.000</text><text x="723.3333333333334" y="418" font-size="16">C4</text><rect x="761.3333333333334" y="398" width="0.0" height="26" fill="#a36b38"/><text x="767.3333333333334" y="418" font-size="13">0.000</text><text x="723.3333333333334" y="490" font-size="12">Scale: 0 to 17.8; means over tasks</text></g></svg>
